<?xml version="1.0" standalone="no"?>
<!DOCTYPE svg PUBLIC "-//W3C//DTD SVG 20010904//EN"
 "http://www.w3.org/TR/2001/REC-SVG-20010904/DTD/svg10.dtd">
<svg version="1.0" xmlns="http://www.w3.org/2000/svg"
 width="48.000000pt" height="48.000000pt" viewBox="0 0 48.000000 48.000000"
 preserveAspectRatio="xMidYMid meet">

<g transform="translate(0.000000,48.000000) scale(0.100000,-0.100000)"
fill="#000000" stroke="none">
<path d="M165 464 c-72 -26 -78 -34 -60 -85 15 -41 15 -45 -2 -57 -17 -13 -17
-14 3 -8 17 5 35 -7 85 -56 35 -34 63 -68 61 -75 -1 -7 4 -26 13 -42 8 -17 15
-34 15 -38 0 -4 -40 -8 -88 -8 -125 0 -159 26 -150 115 4 40 23 50 32 18 5
-14 9 -18 13 -10 2 6 9 10 14 6 17 -10 9 -22 -18 -29 l-26 -6 26 -27 c23 -23
30 -25 46 -15 16 10 22 9 32 -3 11 -13 15 -11 35 13 13 15 23 35 24 44 0 8
-34 39 -76 67 -58 40 -82 50 -100 46 -30 -8 -36 -17 -41 -62 -5 -48 23 -127
61 -169 40 -47 118 -83 176 -83 83 1 172 56 211 132 25 49 24 55 -13 74 -27
14 -33 14 -37 3 -7 -23 -68 -79 -84 -79 -20 0 -35 22 -19 28 7 2 18 9 25 16 6
6 25 21 40 33 l28 22 -20 20 c-13 13 -17 23 -9 27 6 4 18 -2 27 -13 14 -18 70
-53 86 -53 7 0 6 49 -1 77 -3 12 -18 25 -32 29 -21 5 -23 8 -9 11 9 3 17 11
17 20 0 11 -6 14 -24 9 -15 -4 -28 0 -36 9 -8 10 -9 15 -2 15 6 0 13 -4 17
-10 3 -5 12 -7 21 -3 27 10 -5 35 -35 27 -14 -3 -32 -7 -38 -7 -7 0 -13 -6
-13 -13 0 -7 -12 -11 -32 -8 -18 1 -37 3 -43 4 -5 0 -5 4 2 8 16 10 5 52 -13
52 -8 0 -11 -6 -8 -15 4 -8 1 -15 -5 -15 -6 0 -11 6 -11 14 0 17 -27 29 -35
15 -4 -5 -11 -7 -16 -4 -5 4 -9 -4 -9 -16 0 -12 -3 -20 -6 -16 -12 11 7 66 21
61 7 -3 26 1 42 10 l28 15 -25 0 c-14 0 -43 -7 -65 -15z m50 -53 c3 -5 1 -12
-5 -16 -5 -3 -10 1 -10 9 0 18 6 21 15 7z m-170 -141 c-3 -5 -12 -10 -18 -10
-7 0 -6 4 3 10 19 12 23 12 15 0z m247 -10 c-13 -10 -30 -16 -37 -13 -32 12
-10 29 40 32 19 0 19 -1 -3 -19z m13 -50 c-3 -5 -11 -10 -16 -10 -6 0 -7 5 -4
10 3 6 11 10 16 10 6 0 7 -4 4 -10z"/>
</g>
</svg>
